<svg
    xmlns="http://www.w3.org/2000/svg"
    width="32"
    height="32"
    viewBox="0 0 32 32"
    fill="white"
>
    <path
        d="M27.999 28V27.999H28V18.467C28 13.433 27.012 9.624 21.003 9.624C18.253 9.624 16.47 11.071 15.747 12.452H15.678V10.05H10.065V28H15.87V19.368C15.87 17.059 16.317 14.827 19.053 14.827C21.744 14.827 21.783 17.345 21.783 19.51V28H27.999Z"
    />
    <path d="M3.339 10.05H9.156V28H3.339V10.05Z" />
    <path
        d="M6.247 4C4.344 4 3 5.345 3 7.001C3 8.656 4.344 10.001 6.247 10.001C8.15 10.001 9.493 8.656 9.493 7.001C9.492 5.345 8.15 4 6.247 4Z"
    />
</svg>

